solid Exported from Blender-2.79 (sub 0)
facet normal -0.000000 0.998796 -0.049066
outer loop
vertex -2.500000 1.100000 -0.000001
vertex -1.990000 1.100000 -0.000001
vertex -1.990000 1.094703 -0.107820
endloop
endfacet
facet normal -0.000000 0.998796 -0.049066
outer loop
vertex -1.990000 1.094703 -0.107820
vertex -2.500000 1.094703 -0.107820
vertex -2.500000 1.100000 -0.000001
endloop
endfacet
facet normal -0.000000 0.989176 -0.146733
outer loop
vertex -2.500000 1.094703 -0.107820
vertex -1.990000 1.094703 -0.107820
vertex -1.990000 1.078864 -0.214600
endloop
endfacet
facet normal -0.000000 0.989177 -0.146731
outer loop
vertex -1.990000 1.078864 -0.214600
vertex -2.500000 1.078864 -0.214600
vertex -2.500000 1.094703 -0.107820
endloop
endfacet
facet normal 0.000000 0.970032 -0.242979
outer loop
vertex -2.500000 1.078864 -0.214600
vertex -1.990000 1.078864 -0.214600
vertex -1.990000 1.052634 -0.319314
endloop
endfacet
facet normal -0.000000 0.970031 -0.242979
outer loop
vertex -1.990000 1.052634 -0.319314
vertex -2.500000 1.052634 -0.319314
vertex -2.500000 1.078864 -0.214600
endloop
endfacet
facet normal -0.000000 0.941544 -0.336891
outer loop
vertex -2.500000 1.052634 -0.319314
vertex -1.990000 1.052634 -0.319314
vertex -1.990000 1.016267 -0.420953
endloop
endfacet
facet normal -0.000000 0.941544 -0.336891
outer loop
vertex -1.990000 1.016267 -0.420953
vertex -2.500000 1.016267 -0.420952
vertex -2.500000 1.052634 -0.319314
endloop
endfacet
facet normal -0.000000 0.903990 -0.427553
outer loop
vertex -2.500000 1.016267 -0.420952
vertex -1.990000 1.016267 -0.420953
vertex -1.990000 0.970113 -0.518537
endloop
endfacet
facet normal 0.000000 0.903989 -0.427556
outer loop
vertex -1.990000 0.970113 -0.518537
vertex -2.500000 0.970113 -0.518537
vertex -2.500000 1.016267 -0.420952
endloop
endfacet
facet normal -0.000000 0.857728 -0.514103
outer loop
vertex -2.500000 0.970113 -0.518537
vertex -1.990000 0.970113 -0.518537
vertex -1.990000 0.914617 -0.611128
endloop
endfacet
facet normal 0.000000 0.857729 -0.514103
outer loop
vertex -1.990000 0.914617 -0.611128
vertex -2.500000 0.914617 -0.611128
vertex -2.500000 0.970113 -0.518537
endloop
endfacet
facet normal 0.000000 0.803208 -0.595699
outer loop
vertex -2.500000 0.914617 -0.611128
vertex -1.990000 0.914617 -0.611128
vertex -1.990000 0.850312 -0.697833
endloop
endfacet
facet normal 0.000000 0.803208 -0.595699
outer loop
vertex -1.990000 0.850312 -0.697833
vertex -2.500000 0.850312 -0.697833
vertex -2.500000 0.914617 -0.611128
endloop
endfacet
facet normal 0.000000 0.740951 -0.671559
outer loop
vertex -2.500000 0.850312 -0.697833
vertex -1.990000 0.850312 -0.697833
vertex -1.990000 0.777817 -0.777818
endloop
endfacet
facet normal 0.000000 0.740951 -0.671559
outer loop
vertex -1.990000 0.777817 -0.777818
vertex -2.500000 0.777817 -0.777818
vertex -2.500000 0.850312 -0.697833
endloop
endfacet
facet normal 0.000000 0.671559 -0.740951
outer loop
vertex -2.500000 0.777817 -0.777818
vertex -1.990000 0.777817 -0.777818
vertex -1.990000 0.697833 -0.850312
endloop
endfacet
facet normal 0.000000 0.671559 -0.740951
outer loop
vertex -1.990000 0.697833 -0.850312
vertex -2.500000 0.697833 -0.850312
vertex -2.500000 0.777817 -0.777818
endloop
endfacet
facet normal 0.000000 0.595699 -0.803208
outer loop
vertex -2.500000 0.697833 -0.850312
vertex -1.990000 0.697833 -0.850312
vertex -1.990000 0.611127 -0.914617
endloop
endfacet
facet normal 0.000000 0.595699 -0.803208
outer loop
vertex -1.990000 0.611127 -0.914617
vertex -2.500000 0.611127 -0.914617
vertex -2.500000 0.697833 -0.850312
endloop
endfacet
facet normal 0.000000 0.514103 -0.857728
outer loop
vertex -2.500000 0.611127 -0.914617
vertex -1.990000 0.611127 -0.914617
vertex -1.990000 0.518536 -0.970114
endloop
endfacet
facet normal 0.000000 0.514103 -0.857729
outer loop
vertex -1.990000 0.518536 -0.970114
vertex -2.500000 0.518536 -0.970114
vertex -2.500000 0.611127 -0.914617
endloop
endfacet
facet normal 0.000000 0.427554 -0.903990
outer loop
vertex -2.500000 0.518536 -0.970114
vertex -1.990000 0.518536 -0.970114
vertex -1.990000 0.420952 -1.016268
endloop
endfacet
facet normal 0.000000 0.427555 -0.903989
outer loop
vertex -1.990000 0.420952 -1.016268
vertex -2.500000 0.420952 -1.016268
vertex -2.500000 0.518536 -0.970114
endloop
endfacet
facet normal 0.000000 0.336890 -0.941544
outer loop
vertex -2.500000 0.420952 -1.016268
vertex -1.990000 0.420952 -1.016268
vertex -1.990000 0.319313 -1.052635
endloop
endfacet
facet normal 0.000000 0.336889 -0.941544
outer loop
vertex -1.990000 0.319313 -1.052635
vertex -2.500000 0.319313 -1.052635
vertex -2.500000 0.420952 -1.016268
endloop
endfacet
facet normal 0.000000 0.242981 -0.970031
outer loop
vertex -2.500000 0.319313 -1.052635
vertex -1.990000 0.319313 -1.052635
vertex -1.990000 0.214599 -1.078865
endloop
endfacet
facet normal 0.000000 0.242981 -0.970031
outer loop
vertex -1.990000 0.214599 -1.078865
vertex -2.500000 0.214599 -1.078865
vertex -2.500000 0.319313 -1.052635
endloop
endfacet
facet normal 0.000000 0.146730 -0.989177
outer loop
vertex -2.500000 0.214599 -1.078865
vertex -1.990000 0.214599 -1.078865
vertex -1.990000 0.107819 -1.094704
endloop
endfacet
facet normal 0.000000 0.146730 -0.989177
outer loop
vertex -1.990000 0.107819 -1.094704
vertex -2.500000 0.107819 -1.094704
vertex -2.500000 0.214599 -1.078865
endloop
endfacet
facet normal 0.000000 0.049068 -0.998795
outer loop
vertex -2.500000 0.107819 -1.094704
vertex -1.990000 0.107819 -1.094704
vertex -1.990000 -0.000000 -1.100001
endloop
endfacet
facet normal 0.000000 0.049068 -0.998795
outer loop
vertex -1.990000 -0.000000 -1.100001
vertex -2.500000 -0.000000 -1.100001
vertex -2.500000 0.107819 -1.094704
endloop
endfacet
facet normal 0.000000 -0.049068 -0.998795
outer loop
vertex -2.500000 -0.000000 -1.100001
vertex -1.990000 -0.000000 -1.100001
vertex -1.990000 -0.107819 -1.094704
endloop
endfacet
facet normal 0.000000 -0.049068 -0.998795
outer loop
vertex -1.990000 -0.107819 -1.094704
vertex -2.500000 -0.107819 -1.094704
vertex -2.500000 -0.000000 -1.100001
endloop
endfacet
facet normal 0.000000 -0.146731 -0.989176
outer loop
vertex -2.500000 -0.107819 -1.094704
vertex -1.990000 -0.107819 -1.094704
vertex -1.990000 -0.214600 -1.078864
endloop
endfacet
facet normal 0.000001 -0.146730 -0.989177
outer loop
vertex -1.990000 -0.214600 -1.078864
vertex -2.500000 -0.214600 -1.078865
vertex -2.500000 -0.107819 -1.094704
endloop
endfacet
facet normal 0.000001 -0.242981 -0.970031
outer loop
vertex -2.500000 -0.214600 -1.078865
vertex -1.990000 -0.214600 -1.078864
vertex -1.990000 -0.319313 -1.052635
endloop
endfacet
facet normal 0.000000 -0.242982 -0.970031
outer loop
vertex -1.990000 -0.319313 -1.052635
vertex -2.500000 -0.319313 -1.052635
vertex -2.500000 -0.214600 -1.078865
endloop
endfacet
facet normal 0.000000 -0.336889 -0.941544
outer loop
vertex -2.500000 -0.319313 -1.052635
vertex -1.990000 -0.319313 -1.052635
vertex -1.990000 -0.420952 -1.016268
endloop
endfacet
facet normal 0.000000 -0.336890 -0.941544
outer loop
vertex -1.990000 -0.420952 -1.016268
vertex -2.500000 -0.420952 -1.016268
vertex -2.500000 -0.319313 -1.052635
endloop
endfacet
facet normal 0.000000 -0.427556 -0.903989
outer loop
vertex -2.500000 -0.420952 -1.016268
vertex -1.990000 -0.420952 -1.016268
vertex -1.990000 -0.518537 -0.970114
endloop
endfacet
facet normal 0.000000 -0.427554 -0.903990
outer loop
vertex -1.990000 -0.518537 -0.970114
vertex -2.500000 -0.518537 -0.970114
vertex -2.500000 -0.420952 -1.016268
endloop
endfacet
facet normal 0.000000 -0.514104 -0.857728
outer loop
vertex -2.500000 -0.518537 -0.970114
vertex -1.990000 -0.518537 -0.970114
vertex -1.990000 -0.611128 -0.914617
endloop
endfacet
facet normal 0.000000 -0.514103 -0.857728
outer loop
vertex -1.990000 -0.611128 -0.914617
vertex -2.500000 -0.611128 -0.914617
vertex -2.500000 -0.518537 -0.970114
endloop
endfacet
facet normal 0.000000 -0.595700 -0.803207
outer loop
vertex -2.500000 -0.611128 -0.914617
vertex -1.990000 -0.611128 -0.914617
vertex -1.990000 -0.697833 -0.850312
endloop
endfacet
facet normal 0.000000 -0.595699 -0.803208
outer loop
vertex -1.990000 -0.697833 -0.850312
vertex -2.500000 -0.697833 -0.850312
vertex -2.500000 -0.611128 -0.914617
endloop
endfacet
facet normal 0.000000 -0.671560 -0.740950
outer loop
vertex -2.500000 -0.697833 -0.850312
vertex -1.990000 -0.697833 -0.850312
vertex -1.990000 -0.777818 -0.777818
endloop
endfacet
facet normal 0.000000 -0.671560 -0.740951
outer loop
vertex -1.990000 -0.777818 -0.777818
vertex -2.500000 -0.777818 -0.777818
vertex -2.500000 -0.697833 -0.850312
endloop
endfacet
facet normal 0.000000 -0.740952 -0.671559
outer loop
vertex -2.500000 -0.777818 -0.777818
vertex -1.990000 -0.777818 -0.777818
vertex -1.990000 -0.850312 -0.697833
endloop
endfacet
facet normal 0.000000 -0.740952 -0.671558
outer loop
vertex -1.990000 -0.850312 -0.697833
vertex -2.500000 -0.850312 -0.697833
vertex -2.500000 -0.777818 -0.777818
endloop
endfacet
facet normal 0.000000 -0.803207 -0.595700
outer loop
vertex -2.500000 -0.850312 -0.697833
vertex -1.990000 -0.850312 -0.697833
vertex -1.990000 -0.914617 -0.611127
endloop
endfacet
facet normal 0.000000 -0.803208 -0.595699
outer loop
vertex -1.990000 -0.914617 -0.611127
vertex -2.500000 -0.914617 -0.611127
vertex -2.500000 -0.850312 -0.697833
endloop
endfacet
facet normal 0.000000 -0.857729 -0.514102
outer loop
vertex -2.500000 -0.914617 -0.611127
vertex -1.990000 -0.914617 -0.611127
vertex -1.990000 -0.970114 -0.518537
endloop
endfacet
facet normal -0.000000 -0.857729 -0.514102
outer loop
vertex -1.990000 -0.970114 -0.518537
vertex -2.500000 -0.970114 -0.518537
vertex -2.500000 -0.914617 -0.611127
endloop
endfacet
facet normal 0.000000 -0.903989 -0.427555
outer loop
vertex -2.500000 -0.970114 -0.518537
vertex -1.990000 -0.970114 -0.518537
vertex -1.990000 -1.016268 -0.420952
endloop
endfacet
facet normal -0.000000 -0.903989 -0.427555
outer loop
vertex -1.990000 -1.016268 -0.420952
vertex -2.500000 -1.016268 -0.420952
vertex -2.500000 -0.970114 -0.518537
endloop
endfacet
facet normal -0.000000 -0.941544 -0.336891
outer loop
vertex -2.500000 -1.016268 -0.420952
vertex -1.990000 -1.016268 -0.420952
vertex -1.990000 -1.052635 -0.319313
endloop
endfacet
facet normal -0.000000 -0.941544 -0.336889
outer loop
vertex -1.990000 -1.052635 -0.319313
vertex -2.500000 -1.052635 -0.319313
vertex -2.500000 -1.016268 -0.420952
endloop
endfacet
facet normal -0.000000 -0.970032 -0.242979
outer loop
vertex -2.500000 -1.052635 -0.319313
vertex -1.990000 -1.052635 -0.319313
vertex -1.990000 -1.078864 -0.214599
endloop
endfacet
facet normal -0.000000 -0.970031 -0.242979
outer loop
vertex -1.990000 -1.078864 -0.214599
vertex -2.500000 -1.078864 -0.214599
vertex -2.500000 -1.052635 -0.319313
endloop
endfacet
facet normal -0.000000 -0.989177 -0.146730
outer loop
vertex -2.500000 -1.078864 -0.214599
vertex -1.990000 -1.078864 -0.214599
vertex -1.990000 -1.094703 -0.107819
endloop
endfacet
facet normal -0.000000 -0.989177 -0.146729
outer loop
vertex -1.990000 -1.094703 -0.107819
vertex -2.500000 -1.094703 -0.107819
vertex -2.500000 -1.078864 -0.214599
endloop
endfacet
facet normal -0.000000 -0.998796 -0.049066
outer loop
vertex -2.500000 -1.094703 -0.107819
vertex -1.990000 -1.094703 -0.107819
vertex -1.990000 -1.100000 0.000000
endloop
endfacet
facet normal -0.000000 -0.998796 -0.049066
outer loop
vertex -1.990000 -1.100000 0.000000
vertex -2.500000 -1.100000 0.000000
vertex -2.500000 -1.094703 -0.107819
endloop
endfacet
facet normal 0.000000 -0.998796 0.049066
outer loop
vertex -2.500000 -1.100000 0.000000
vertex -1.990000 -1.100000 0.000000
vertex -1.990000 -1.094703 0.107819
endloop
endfacet
facet normal 0.000000 -0.998795 0.049068
outer loop
vertex -1.990000 -1.094703 0.107819
vertex -2.500000 -1.094703 0.107819
vertex -2.500000 -1.100000 0.000000
endloop
endfacet
facet normal 0.000000 -0.989177 0.146730
outer loop
vertex -2.500000 -1.094703 0.107819
vertex -1.990000 -1.094703 0.107819
vertex -1.990000 -1.078864 0.214600
endloop
endfacet
facet normal 0.000000 -0.989176 0.146733
outer loop
vertex -1.990000 -1.078864 0.214600
vertex -2.500000 -1.078864 0.214600
vertex -2.500000 -1.094703 0.107819
endloop
endfacet
facet normal 0.000000 -0.970031 0.242981
outer loop
vertex -2.500000 -1.078864 0.214600
vertex -1.990000 -1.078864 0.214600
vertex -1.990000 -1.052634 0.319313
endloop
endfacet
facet normal 0.000000 -0.970031 0.242981
outer loop
vertex -1.990000 -1.052634 0.319313
vertex -2.500000 -1.052634 0.319313
vertex -2.500000 -1.078864 0.214600
endloop
endfacet
facet normal 0.000000 -0.941544 0.336891
outer loop
vertex -2.500000 -1.052634 0.319313
vertex -1.990000 -1.052634 0.319313
vertex -1.990000 -1.016267 0.420952
endloop
endfacet
facet normal 0.000000 -0.941544 0.336891
outer loop
vertex -1.990000 -1.016267 0.420952
vertex -2.500000 -1.016267 0.420952
vertex -2.500000 -1.052634 0.319313
endloop
endfacet
facet normal 0.000000 -0.903988 0.427557
outer loop
vertex -2.500000 -1.016267 0.420952
vertex -1.990000 -1.016267 0.420952
vertex -1.990000 -0.970113 0.518537
endloop
endfacet
facet normal 0.000000 -0.903990 0.427555
outer loop
vertex -1.990000 -0.970113 0.518537
vertex -2.500000 -0.970113 0.518537
vertex -2.500000 -1.016267 0.420952
endloop
endfacet
facet normal 0.000000 -0.857728 0.514104
outer loop
vertex -2.500000 -0.970113 0.518537
vertex -1.990000 -0.970113 0.518537
vertex -1.990000 -0.914616 0.611127
endloop
endfacet
facet normal 0.000000 -0.857728 0.514104
outer loop
vertex -1.990000 -0.914616 0.611127
vertex -2.500000 -0.914616 0.611127
vertex -2.500000 -0.970113 0.518537
endloop
endfacet
facet normal -0.000000 -0.803207 0.595701
outer loop
vertex -2.500000 -0.914616 0.611127
vertex -1.990000 -0.914616 0.611127
vertex -1.990000 -0.850311 0.697833
endloop
endfacet
facet normal 0.000000 -0.803207 0.595700
outer loop
vertex -1.990000 -0.850311 0.697833
vertex -2.500000 -0.850311 0.697833
vertex -2.500000 -0.914616 0.611127
endloop
endfacet
facet normal 0.000000 -0.740951 0.671559
outer loop
vertex -2.500000 -0.850311 0.697833
vertex -1.990000 -0.850311 0.697833
vertex -1.990000 -0.777817 0.777818
endloop
endfacet
facet normal 0.000000 -0.740950 0.671560
outer loop
vertex -1.990000 -0.777817 0.777818
vertex -2.500000 -0.777817 0.777818
vertex -2.500000 -0.850311 0.697833
endloop
endfacet
facet normal 0.000000 -0.671559 0.740951
outer loop
vertex -2.500000 -0.777817 0.777818
vertex -1.990000 -0.777817 0.777818
vertex -1.990000 -0.697832 0.850311
endloop
endfacet
facet normal 0.000000 -0.671558 0.740952
outer loop
vertex -1.990000 -0.697832 0.850311
vertex -2.500000 -0.697832 0.850311
vertex -2.500000 -0.777817 0.777818
endloop
endfacet
facet normal 0.000000 -0.595698 0.803209
outer loop
vertex -2.500000 -0.697832 0.850311
vertex -1.990000 -0.697832 0.850311
vertex -1.990000 -0.611127 0.914616
endloop
endfacet
facet normal -0.000000 -0.595698 0.803208
outer loop
vertex -1.990000 -0.611127 0.914616
vertex -2.500000 -0.611127 0.914616
vertex -2.500000 -0.697832 0.850311
endloop
endfacet
facet normal 0.000000 -0.514103 0.857729
outer loop
vertex -2.500000 -0.611127 0.914616
vertex -1.990000 -0.611127 0.914616
vertex -1.990000 -0.518536 0.970113
endloop
endfacet
facet normal 0.000000 -0.514102 0.857729
outer loop
vertex -1.990000 -0.518536 0.970113
vertex -2.500000 -0.518536 0.970113
vertex -2.500000 -0.611127 0.914616
endloop
endfacet
facet normal 0.000000 -0.427555 0.903989
outer loop
vertex -2.500000 -0.518536 0.970113
vertex -1.990000 -0.518536 0.970113
vertex -1.990000 -0.420951 1.016267
endloop
endfacet
facet normal 0.000000 -0.427555 0.903989
outer loop
vertex -1.990000 -0.420951 1.016267
vertex -2.500000 -0.420951 1.016267
vertex -2.500000 -0.518536 0.970113
endloop
endfacet
facet normal 0.000000 -0.336889 0.941545
outer loop
vertex -2.500000 -0.420951 1.016267
vertex -1.990000 -0.420951 1.016267
vertex -1.990000 -0.319313 1.052634
endloop
endfacet
facet normal 0.000000 -0.336889 0.941544
outer loop
vertex -1.990000 -0.319313 1.052634
vertex -2.500000 -0.319313 1.052634
vertex -2.500000 -0.420951 1.016267
endloop
endfacet
facet normal 0.000000 -0.242980 0.970031
outer loop
vertex -2.500000 -0.319313 1.052634
vertex -1.990000 -0.319313 1.052634
vertex -1.990000 -0.214599 1.078863
endloop
endfacet
facet normal 0.000001 -0.242981 0.970031
outer loop
vertex -1.990000 -0.214599 1.078863
vertex -2.500000 -0.214599 1.078863
vertex -2.500000 -0.319313 1.052634
endloop
endfacet
facet normal 0.000000 -0.146731 0.989176
outer loop
vertex -2.500000 -0.214599 1.078863
vertex -1.990000 -0.214599 1.078863
vertex -1.990000 -0.107819 1.094702
endloop
endfacet
facet normal 0.000000 -0.146730 0.989177
outer loop
vertex -1.990000 -0.107819 1.094702
vertex -2.500000 -0.107819 1.094702
vertex -2.500000 -0.214599 1.078863
endloop
endfacet
facet normal 0.000000 -0.049068 0.998796
outer loop
vertex -2.500000 -0.107819 1.094702
vertex -1.990000 -0.107819 1.094702
vertex -1.990000 -0.000001 1.099999
endloop
endfacet
facet normal 0.000000 -0.049067 0.998796
outer loop
vertex -1.990000 -0.000001 1.099999
vertex -2.500000 -0.000001 1.099999
vertex -2.500000 -0.107819 1.094702
endloop
endfacet
facet normal -0.000000 0.049067 0.998795
outer loop
vertex -2.500000 -0.000001 1.099999
vertex -1.990000 -0.000001 1.099999
vertex -1.990000 0.107818 1.094703
endloop
endfacet
facet normal 0.000000 0.049066 0.998796
outer loop
vertex -1.990000 0.107818 1.094703
vertex -2.500000 0.107818 1.094703
vertex -2.500000 -0.000001 1.099999
endloop
endfacet
facet normal 0.000000 0.146730 0.989177
outer loop
vertex -2.500000 0.107818 1.094703
vertex -1.990000 0.107818 1.094703
vertex -1.990000 0.214598 1.078863
endloop
endfacet
facet normal 0.000000 0.146730 0.989177
outer loop
vertex -1.990000 0.214598 1.078863
vertex -2.500000 0.214598 1.078863
vertex -2.500000 0.107818 1.094703
endloop
endfacet
facet normal 0.000000 0.242979 0.970031
outer loop
vertex -2.500000 0.214598 1.078863
vertex -1.990000 0.214598 1.078863
vertex -1.990000 0.319312 1.052634
endloop
endfacet
facet normal 0.000000 0.242979 0.970031
outer loop
vertex -1.990000 0.319312 1.052634
vertex -2.500000 0.319312 1.052634
vertex -2.500000 0.214598 1.078863
endloop
endfacet
facet normal 0.000000 0.336888 0.941545
outer loop
vertex -2.500000 0.319312 1.052634
vertex -1.990000 0.319312 1.052634
vertex -1.990000 0.420950 1.016267
endloop
endfacet
facet normal 0.000000 0.336889 0.941544
outer loop
vertex -1.990000 0.420950 1.016267
vertex -2.500000 0.420950 1.016267
vertex -2.500000 0.319312 1.052634
endloop
endfacet
facet normal 0.000000 0.427554 0.903990
outer loop
vertex -2.500000 0.420950 1.016267
vertex -1.990000 0.420950 1.016267
vertex -1.990000 0.518535 0.970113
endloop
endfacet
facet normal 0.000000 0.427554 0.903990
outer loop
vertex -1.990000 0.518535 0.970113
vertex -2.500000 0.518535 0.970113
vertex -2.500000 0.420950 1.016267
endloop
endfacet
facet normal 0.000000 0.514102 0.857729
outer loop
vertex -2.500000 0.518535 0.970113
vertex -1.990000 0.518535 0.970113
vertex -1.990000 0.611126 0.914617
endloop
endfacet
facet normal 0.000000 0.514101 0.857730
outer loop
vertex -1.990000 0.611126 0.914617
vertex -2.500000 0.611126 0.914617
vertex -2.500000 0.518535 0.970113
endloop
endfacet
facet normal 0.000000 0.595698 0.803208
outer loop
vertex -2.500000 0.611126 0.914617
vertex -1.990000 0.611126 0.914617
vertex -1.990000 0.697831 0.850312
endloop
endfacet
facet normal 0.000000 0.595698 0.803209
outer loop
vertex -1.990000 0.697831 0.850312
vertex -2.500000 0.697831 0.850312
vertex -2.500000 0.611126 0.914617
endloop
endfacet
facet normal 0.000000 0.671558 0.740952
outer loop
vertex -2.500000 0.697831 0.850312
vertex -1.990000 0.697831 0.850312
vertex -1.990000 0.777816 0.777818
endloop
endfacet
facet normal 0.000000 0.671557 0.740953
outer loop
vertex -1.990000 0.777816 0.777818
vertex -2.500000 0.777816 0.777818
vertex -2.500000 0.697831 0.850312
endloop
endfacet
facet normal -0.000000 0.740950 0.671560
outer loop
vertex -2.500000 0.777816 0.777818
vertex -1.990000 0.777816 0.777818
vertex -1.990000 0.850310 0.697834
endloop
endfacet
facet normal 0.000000 0.740949 0.671561
outer loop
vertex -1.990000 0.850310 0.697834
vertex -2.500000 0.850310 0.697834
vertex -2.500000 0.777816 0.777818
endloop
endfacet
facet normal 0.000000 0.803206 0.595701
outer loop
vertex -2.500000 0.850310 0.697834
vertex -1.990000 0.850310 0.697834
vertex -1.990000 0.914615 0.611129
endloop
endfacet
facet normal 0.000000 0.803206 0.595701
outer loop
vertex -1.990000 0.914615 0.611129
vertex -2.500000 0.914615 0.611129
vertex -2.500000 0.850310 0.697834
endloop
endfacet
facet normal 0.000000 0.857727 0.514106
outer loop
vertex -2.500000 0.914615 0.611129
vertex -1.990000 0.914615 0.611129
vertex -1.990000 0.970112 0.518538
endloop
endfacet
facet normal 0.000000 0.857726 0.514107
outer loop
vertex -1.990000 0.970112 0.518538
vertex -2.500000 0.970112 0.518538
vertex -2.500000 0.914615 0.611129
endloop
endfacet
facet normal 0.000000 0.903989 0.427556
outer loop
vertex -2.500000 0.970112 0.518538
vertex -1.990000 0.970112 0.518538
vertex -1.990000 1.016266 0.420954
endloop
endfacet
facet normal 0.000000 0.903988 0.427558
outer loop
vertex -1.990000 1.016266 0.420954
vertex -2.500000 1.016266 0.420954
vertex -2.500000 0.970112 0.518538
endloop
endfacet
facet normal 0.000000 0.941543 0.336894
outer loop
vertex -2.500000 1.016266 0.420954
vertex -1.990000 1.016266 0.420954
vertex -1.990000 1.052633 0.319316
endloop
endfacet
facet normal 0.000000 0.941543 0.336892
outer loop
vertex -1.990000 1.052633 0.319316
vertex -2.500000 1.052633 0.319316
vertex -2.500000 1.016266 0.420954
endloop
endfacet
facet normal 0.000000 0.970030 0.242984
outer loop
vertex -2.500000 1.052633 0.319316
vertex -1.990000 1.052633 0.319316
vertex -1.990000 1.078863 0.214602
endloop
endfacet
facet normal 0.000000 0.970031 0.242982
outer loop
vertex -1.990000 1.078863 0.214602
vertex -2.500000 1.078863 0.214602
vertex -2.500000 1.052633 0.319316
endloop
endfacet
facet normal 1.000000 0.000000 0.000000
outer loop
vertex -1.990000 1.078864 -0.214600
vertex -1.990000 1.094703 -0.107820
vertex -1.990000 1.100000 -0.000001
endloop
endfacet
facet normal 1.000000 0.000026 0.000000
outer loop
vertex -1.990000 1.100000 -0.000001
vertex -1.990000 1.094703 0.107822
vertex -1.990000 1.078863 0.214602
endloop
endfacet
facet normal 1.000000 -0.000026 0.000000
outer loop
vertex -1.990000 1.078863 0.214602
vertex -1.990000 1.052633 0.319316
vertex -1.990000 1.016266 0.420954
endloop
endfacet
facet normal 1.000000 0.000026 0.000000
outer loop
vertex -1.990000 1.016266 0.420954
vertex -1.990000 0.970112 0.518538
vertex -1.990000 0.914615 0.611129
endloop
endfacet
facet normal 1.000000 0.000000 0.000000
outer loop
vertex -1.990000 0.914615 0.611129
vertex -1.990000 0.850310 0.697834
vertex -1.990000 0.777816 0.777818
endloop
endfacet
facet normal 1.000000 0.000000 0.000000
outer loop
vertex -1.990000 0.777816 0.777818
vertex -1.990000 0.697831 0.850312
vertex -1.990000 0.611126 0.914617
endloop
endfacet
facet normal 1.000000 0.000013 0.000000
outer loop
vertex -1.990000 0.611126 0.914617
vertex -1.990000 0.518535 0.970113
vertex -1.990000 0.420950 1.016267
endloop
endfacet
facet normal 1.000000 0.000007 0.000000
outer loop
vertex -1.990000 0.420950 1.016267
vertex -1.990000 0.319312 1.052634
vertex -1.990000 0.214598 1.078863
endloop
endfacet
facet normal 1.000000 0.000000 0.000000
outer loop
vertex -1.990000 0.214598 1.078863
vertex -1.990000 0.107818 1.094703
vertex -1.990000 -0.000001 1.099999
endloop
endfacet
facet normal 1.000000 0.000000 0.000000
outer loop
vertex -1.990000 -0.000001 1.099999
vertex -1.990000 -0.107819 1.094702
vertex -1.990000 -0.214599 1.078863
endloop
endfacet
facet normal 1.000000 -0.000013 0.000000
outer loop
vertex -1.990000 -0.214599 1.078863
vertex -1.990000 -0.319313 1.052634
vertex -1.990000 -0.420951 1.016267
endloop
endfacet
facet normal 1.000000 0.000000 0.000000
outer loop
vertex -1.990000 -0.420951 1.016267
vertex -1.990000 -0.518536 0.970113
vertex -1.990000 -0.611127 0.914616
endloop
endfacet
facet normal 1.000000 0.000000 0.000000
outer loop
vertex -1.990000 -0.611127 0.914616
vertex -1.990000 -0.697832 0.850311
vertex -1.990000 -0.777817 0.777818
endloop
endfacet
facet normal 1.000000 0.000000 0.000000
outer loop
vertex -1.990000 -0.777817 0.777818
vertex -1.990000 -0.850311 0.697833
vertex -1.990000 -0.914616 0.611127
endloop
endfacet
facet normal 1.000000 -0.000026 0.000000
outer loop
vertex -1.990000 -0.914616 0.611127
vertex -1.990000 -0.970113 0.518537
vertex -1.990000 -1.016267 0.420952
endloop
endfacet
facet normal 1.000000 0.000000 0.000000
outer loop
vertex -1.990000 -1.016267 0.420952
vertex -1.990000 -1.052634 0.319313
vertex -1.990000 -1.078864 0.214600
endloop
endfacet
facet normal 1.000000 -0.000026 0.000000
outer loop
vertex -1.990000 -1.078864 0.214600
vertex -1.990000 -1.094703 0.107819
vertex -1.990000 -1.100000 0.000000
endloop
endfacet
facet normal 1.000000 -0.000026 0.000000
outer loop
vertex -1.990000 -1.100000 0.000000
vertex -1.990000 -1.094703 -0.107819
vertex -1.990000 -1.078864 -0.214599
endloop
endfacet
facet normal 1.000000 0.000000 0.000000
outer loop
vertex -1.990000 -1.078864 -0.214599
vertex -1.990000 -1.052635 -0.319313
vertex -1.990000 -1.016268 -0.420952
endloop
endfacet
facet normal 1.000000 -0.000026 0.000000
outer loop
vertex -1.990000 -1.016268 -0.420952
vertex -1.990000 -0.970114 -0.518537
vertex -1.990000 -0.914617 -0.611127
endloop
endfacet
facet normal 1.000000 0.000000 0.000000
outer loop
vertex -1.990000 -0.914617 -0.611127
vertex -1.990000 -0.850312 -0.697833
vertex -1.990000 -0.777818 -0.777818
endloop
endfacet
facet normal 1.000000 0.000000 0.000000
outer loop
vertex -1.990000 -0.777818 -0.777818
vertex -1.990000 -0.697833 -0.850312
vertex -1.990000 -0.611128 -0.914617
endloop
endfacet
facet normal 1.000000 0.000013 0.000000
outer loop
vertex -1.990000 -0.611128 -0.914617
vertex -1.990000 -0.518537 -0.970114
vertex -1.990000 -0.420952 -1.016268
endloop
endfacet
facet normal 1.000000 0.000013 0.000000
outer loop
vertex -1.990000 -0.420952 -1.016268
vertex -1.990000 -0.319313 -1.052635
vertex -1.990000 -0.214600 -1.078864
endloop
endfacet
facet normal 1.000000 0.000002 0.000000
outer loop
vertex -1.990000 -0.214600 -1.078864
vertex -1.990000 -0.107819 -1.094704
vertex -1.990000 -0.000000 -1.100001
endloop
endfacet
facet normal 1.000000 0.000007 0.000000
outer loop
vertex -1.990000 -0.000000 -1.100001
vertex -1.990000 0.107819 -1.094704
vertex -1.990000 0.214599 -1.078865
endloop
endfacet
facet normal 1.000000 -0.000013 0.000000
outer loop
vertex -1.990000 0.214599 -1.078865
vertex -1.990000 0.319313 -1.052635
vertex -1.990000 0.420952 -1.016268
endloop
endfacet
facet normal 1.000000 0.000000 0.000000
outer loop
vertex -1.990000 0.420952 -1.016268
vertex -1.990000 0.518536 -0.970114
vertex -1.990000 0.611127 -0.914617
endloop
endfacet
facet normal 1.000000 0.000000 0.000000
outer loop
vertex -1.990000 0.611127 -0.914617
vertex -1.990000 0.697833 -0.850312
vertex -1.990000 0.777817 -0.777818
endloop
endfacet
facet normal 1.000000 0.000000 0.000000
outer loop
vertex -1.990000 0.777817 -0.777818
vertex -1.990000 0.850312 -0.697833
vertex -1.990000 0.914617 -0.611128
endloop
endfacet
facet normal 1.000000 0.000026 0.000000
outer loop
vertex -1.990000 0.914617 -0.611128
vertex -1.990000 0.970113 -0.518537
vertex -1.990000 1.016267 -0.420953
endloop
endfacet
facet normal 1.000000 0.000026 0.000000
outer loop
vertex -1.990000 1.016267 -0.420953
vertex -1.990000 1.052634 -0.319314
vertex -1.990000 1.078864 -0.214600
endloop
endfacet
facet normal 1.000000 -0.000007 0.000000
outer loop
vertex -1.990000 1.078864 -0.214600
vertex -1.990000 1.100000 -0.000001
vertex -1.990000 1.078863 0.214602
endloop
endfacet
facet normal 1.000000 -0.000007 0.000000
outer loop
vertex -1.990000 1.078863 0.214602
vertex -1.990000 1.016266 0.420954
vertex -1.990000 0.914615 0.611129
endloop
endfacet
facet normal 1.000000 0.000007 0.000000
outer loop
vertex -1.990000 0.914615 0.611129
vertex -1.990000 0.777816 0.777818
vertex -1.990000 0.611126 0.914617
endloop
endfacet
facet normal 1.000000 0.000002 0.000000
outer loop
vertex -1.990000 0.611126 0.914617
vertex -1.990000 0.420950 1.016267
vertex -1.990000 0.214598 1.078863
endloop
endfacet
facet normal 1.000000 0.000000 0.000000
outer loop
vertex -1.990000 0.214598 1.078863
vertex -1.990000 -0.000001 1.099999
vertex -1.990000 -0.214599 1.078863
endloop
endfacet
facet normal 1.000000 -0.000003 0.000000
outer loop
vertex -1.990000 -0.214599 1.078863
vertex -1.990000 -0.420951 1.016267
vertex -1.990000 -0.611127 0.914616
endloop
endfacet
facet normal 1.000000 0.000000 0.000000
outer loop
vertex -1.990000 -0.611127 0.914616
vertex -1.990000 -0.777817 0.777818
vertex -1.990000 -0.914616 0.611127
endloop
endfacet
facet normal 1.000000 -0.000007 0.000000
outer loop
vertex -1.990000 -0.914616 0.611127
vertex -1.990000 -1.016267 0.420952
vertex -1.990000 -1.078864 0.214600
endloop
endfacet
facet normal 1.000000 0.000000 0.000000
outer loop
vertex -1.990000 -1.078864 0.214600
vertex -1.990000 -1.100000 0.000000
vertex -1.990000 -1.078864 -0.214599
endloop
endfacet
facet normal 1.000000 0.000007 0.000000
outer loop
vertex -1.990000 -1.078864 -0.214599
vertex -1.990000 -1.016268 -0.420952
vertex -1.990000 -0.914617 -0.611127
endloop
endfacet
facet normal 1.000000 0.000000 0.000000
outer loop
vertex -1.990000 -0.914617 -0.611127
vertex -1.990000 -0.777818 -0.777818
vertex -1.990000 -0.611128 -0.914617
endloop
endfacet
facet normal 1.000000 -0.000002 0.000000
outer loop
vertex -1.990000 -0.611128 -0.914617
vertex -1.990000 -0.420952 -1.016268
vertex -1.990000 -0.214600 -1.078864
endloop
endfacet
facet normal 1.000000 0.000000 0.000000
outer loop
vertex -1.990000 -0.214600 -1.078864
vertex -1.990000 -0.000000 -1.100001
vertex -1.990000 0.214599 -1.078865
endloop
endfacet
facet normal 1.000000 0.000003 0.000000
outer loop
vertex -1.990000 0.214599 -1.078865
vertex -1.990000 0.420952 -1.016268
vertex -1.990000 0.611127 -0.914617
endloop
endfacet
facet normal 1.000000 0.000000 0.000000
outer loop
vertex -1.990000 0.611127 -0.914617
vertex -1.990000 0.777817 -0.777818
vertex -1.990000 0.914617 -0.611128
endloop
endfacet
facet normal 1.000000 0.000000 0.000000
outer loop
vertex -1.990000 0.914617 -0.611128
vertex -1.990000 1.016267 -0.420953
vertex -1.990000 1.078864 -0.214600
endloop
endfacet
facet normal 1.000000 0.000002 0.000000
outer loop
vertex -1.990000 1.078864 -0.214600
vertex -1.990000 1.078863 0.214602
vertex -1.990000 0.914615 0.611129
endloop
endfacet
facet normal 1.000000 -0.000001 0.000000
outer loop
vertex -1.990000 0.914615 0.611129
vertex -1.990000 0.611126 0.914617
vertex -1.990000 0.214598 1.078863
endloop
endfacet
facet normal 1.000000 0.000000 0.000000
outer loop
vertex -1.990000 0.214598 1.078863
vertex -1.990000 -0.214599 1.078863
vertex -1.990000 -0.611127 0.914616
endloop
endfacet
facet normal 1.000000 0.000002 0.000000
outer loop
vertex -1.990000 -0.611127 0.914616
vertex -1.990000 -0.914616 0.611127
vertex -1.990000 -1.078864 0.214600
endloop
endfacet
facet normal 1.000000 0.000002 0.000000
outer loop
vertex -1.990000 -1.078864 0.214600
vertex -1.990000 -1.078864 -0.214599
vertex -1.990000 -0.914617 -0.611127
endloop
endfacet
facet normal 1.000000 0.000001 0.000000
outer loop
vertex -1.990000 -0.914617 -0.611127
vertex -1.990000 -0.611128 -0.914617
vertex -1.990000 -0.214600 -1.078864
endloop
endfacet
facet normal 1.000000 0.000000 0.000000
outer loop
vertex -1.990000 -0.214600 -1.078864
vertex -1.990000 0.214599 -1.078865
vertex -1.990000 0.611127 -0.914617
endloop
endfacet
facet normal 1.000000 -0.000003 0.000000
outer loop
vertex -1.990000 0.611127 -0.914617
vertex -1.990000 0.914617 -0.611128
vertex -1.990000 1.078864 -0.214600
endloop
endfacet
facet normal 1.000000 -0.000000 0.000000
outer loop
vertex -1.990000 1.078864 -0.214600
vertex -1.990000 0.914615 0.611129
vertex -1.990000 0.214598 1.078863
endloop
endfacet
facet normal 1.000000 0.000000 0.000000
outer loop
vertex -1.990000 0.214598 1.078863
vertex -1.990000 -0.611127 0.914616
vertex -1.990000 -1.078864 0.214600
endloop
endfacet
facet normal 1.000000 0.000000 0.000000
outer loop
vertex -1.990000 -1.078864 0.214600
vertex -1.990000 -0.914617 -0.611127
vertex -1.990000 -0.214600 -1.078864
endloop
endfacet
facet normal 1.000000 0.000000 0.000000
outer loop
vertex -1.990000 -0.214600 -1.078864
vertex -1.990000 0.611127 -0.914617
vertex -1.990000 1.078864 -0.214600
endloop
endfacet
facet normal 1.000000 0.000000 0.000000
outer loop
vertex -1.990000 1.078864 -0.214600
vertex -1.990000 0.214598 1.078863
vertex -1.990000 -1.078864 0.214600
endloop
endfacet
facet normal 1.000000 -0.000000 0.000000
outer loop
vertex -1.990000 -1.078864 0.214600
vertex -1.990000 -0.214600 -1.078864
vertex -1.990000 1.078864 -0.214600
endloop
endfacet
facet normal 0.000000 0.989176 0.146735
outer loop
vertex -2.500000 1.078863 0.214602
vertex -1.990000 1.078863 0.214602
vertex -1.990000 1.094703 0.107822
endloop
endfacet
facet normal 0.000000 0.989176 0.146731
outer loop
vertex -1.990000 1.094703 0.107822
vertex -2.500000 1.094703 0.107822
vertex -2.500000 1.078863 0.214602
endloop
endfacet
facet normal 0.000000 0.998795 0.049069
outer loop
vertex -1.990000 1.100000 -0.000001
vertex -2.500000 1.100000 -0.000001
vertex -2.500000 1.094703 0.107822
endloop
endfacet
facet normal 0.000000 0.998795 0.049071
outer loop
vertex -2.500000 1.094703 0.107822
vertex -1.990000 1.094703 0.107822
vertex -1.990000 1.100000 -0.000001
endloop
endfacet
facet normal -1.000000 0.000000 0.000000
outer loop
vertex -2.500000 1.094703 0.107822
vertex -2.500000 1.100000 -0.000001
vertex -2.500000 1.094703 -0.107820
endloop
endfacet
facet normal -1.000000 -0.000052 0.000000
outer loop
vertex -2.500000 1.094703 -0.107820
vertex -2.500000 1.078864 -0.214600
vertex -2.500000 1.052634 -0.319314
endloop
endfacet
facet normal -1.000000 -0.000026 0.000000
outer loop
vertex -2.500000 1.052634 -0.319314
vertex -2.500000 1.016267 -0.420952
vertex -2.500000 0.970113 -0.518537
endloop
endfacet
facet normal -1.000000 0.000052 -0.000025
outer loop
vertex -2.500000 0.970113 -0.518537
vertex -2.500000 0.914617 -0.611128
vertex -2.500000 0.850312 -0.697833
endloop
endfacet
facet normal -1.000000 0.000000 0.000000
outer loop
vertex -2.500000 0.850312 -0.697833
vertex -2.500000 0.777817 -0.777818
vertex -2.500000 0.697833 -0.850312
endloop
endfacet
facet normal -1.000000 0.000000 0.000000
outer loop
vertex -2.500000 0.697833 -0.850312
vertex -2.500000 0.611127 -0.914617
vertex -2.500000 0.518536 -0.970114
endloop
endfacet
facet normal -1.000000 0.000000 0.000000
outer loop
vertex -2.500000 0.518536 -0.970114
vertex -2.500000 0.420952 -1.016268
vertex -2.500000 0.319313 -1.052635
endloop
endfacet
facet normal -1.000000 -0.000007 0.000000
outer loop
vertex -2.500000 0.319313 -1.052635
vertex -2.500000 0.214599 -1.078865
vertex -2.500000 0.107819 -1.094704
endloop
endfacet
facet normal -1.000000 0.000000 0.000000
outer loop
vertex -2.500000 0.107819 -1.094704
vertex -2.500000 -0.000000 -1.100001
vertex -2.500000 -0.107819 -1.094704
endloop
endfacet
facet normal -1.000000 0.000013 0.000000
outer loop
vertex -2.500000 -0.107819 -1.094704
vertex -2.500000 -0.214600 -1.078865
vertex -2.500000 -0.319313 -1.052635
endloop
endfacet
facet normal -1.000000 0.000000 0.000000
outer loop
vertex -2.500000 -0.319313 -1.052635
vertex -2.500000 -0.420952 -1.016268
vertex -2.500000 -0.518537 -0.970114
endloop
endfacet
facet normal -1.000000 0.000000 0.000000
outer loop
vertex -2.500000 -0.518537 -0.970114
vertex -2.500000 -0.611128 -0.914617
vertex -2.500000 -0.697833 -0.850312
endloop
endfacet
facet normal -1.000000 0.000026 0.000017
outer loop
vertex -2.500000 -0.697833 -0.850312
vertex -2.500000 -0.777818 -0.777818
vertex -2.500000 -0.850312 -0.697833
endloop
endfacet
facet normal -1.000000 0.000000 -0.000013
outer loop
vertex -2.500000 -0.850312 -0.697833
vertex -2.500000 -0.914617 -0.611127
vertex -2.500000 -0.970114 -0.518537
endloop
endfacet
facet normal -1.000000 0.000000 0.000000
outer loop
vertex -2.500000 -0.970114 -0.518537
vertex -2.500000 -1.016268 -0.420952
vertex -2.500000 -1.052635 -0.319313
endloop
endfacet
facet normal -1.000000 0.000000 0.000000
outer loop
vertex -2.500000 -1.052635 -0.319313
vertex -2.500000 -1.078864 -0.214599
vertex -2.500000 -1.094703 -0.107819
endloop
endfacet
facet normal -1.000000 0.000000 0.000000
outer loop
vertex -2.500000 -1.094703 -0.107819
vertex -2.500000 -1.100000 0.000000
vertex -2.500000 -1.094703 0.107819
endloop
endfacet
facet normal -1.000000 0.000000 0.000000
outer loop
vertex -2.500000 -1.094703 0.107819
vertex -2.500000 -1.078864 0.214600
vertex -2.500000 -1.052634 0.319313
endloop
endfacet
facet normal -1.000000 0.000000 0.000010
outer loop
vertex -2.500000 -1.052634 0.319313
vertex -2.500000 -1.016267 0.420952
vertex -2.500000 -0.970113 0.518537
endloop
endfacet
facet normal -1.000000 0.000000 0.000000
outer loop
vertex -2.500000 -0.970113 0.518537
vertex -2.500000 -0.914616 0.611127
vertex -2.500000 -0.850311 0.697833
endloop
endfacet
facet normal -1.000000 0.000000 0.000000
outer loop
vertex -2.500000 -0.850311 0.697833
vertex -2.500000 -0.777817 0.777818
vertex -2.500000 -0.697832 0.850311
endloop
endfacet
facet normal -1.000000 0.000000 0.000000
outer loop
vertex -2.500000 -0.697832 0.850311
vertex -2.500000 -0.611127 0.914616
vertex -2.500000 -0.518536 0.970113
endloop
endfacet
facet normal -1.000000 0.000000 0.000000
outer loop
vertex -2.500000 -0.518536 0.970113
vertex -2.500000 -0.420951 1.016267
vertex -2.500000 -0.319313 1.052634
endloop
endfacet
facet normal -1.000000 0.000000 0.000000
outer loop
vertex -2.500000 -0.319313 1.052634
vertex -2.500000 -0.214599 1.078863
vertex -2.500000 -0.107819 1.094702
endloop
endfacet
facet normal -1.000000 0.000000 0.000000
outer loop
vertex -2.500000 -0.107819 1.094702
vertex -2.500000 -0.000001 1.099999
vertex -2.500000 0.107818 1.094703
endloop
endfacet
facet normal -1.000000 0.000000 0.000000
outer loop
vertex -2.500000 0.107818 1.094703
vertex -2.500000 0.214598 1.078863
vertex -2.500000 0.319312 1.052634
endloop
endfacet
facet normal -1.000000 0.000000 0.000000
outer loop
vertex -2.500000 0.319312 1.052634
vertex -2.500000 0.420950 1.016267
vertex -2.500000 0.518535 0.970113
endloop
endfacet
facet normal -1.000000 0.000000 0.000000
outer loop
vertex -2.500000 0.518535 0.970113
vertex -2.500000 0.611126 0.914617
vertex -2.500000 0.697831 0.850312
endloop
endfacet
facet normal -1.000000 0.000000 0.000000
outer loop
vertex -2.500000 0.697831 0.850312
vertex -2.500000 0.777816 0.777818
vertex -2.500000 0.850310 0.697834
endloop
endfacet
facet normal -1.000000 0.000000 0.000000
outer loop
vertex -2.500000 0.850310 0.697834
vertex -2.500000 0.914615 0.611129
vertex -2.500000 0.970112 0.518538
endloop
endfacet
facet normal -1.000000 0.000000 0.000010
outer loop
vertex -2.500000 0.970112 0.518538
vertex -2.500000 1.016266 0.420954
vertex -2.500000 1.052633 0.319316
endloop
endfacet
facet normal -1.000000 0.000052 0.000000
outer loop
vertex -2.500000 1.052633 0.319316
vertex -2.500000 1.078863 0.214602
vertex -2.500000 1.094703 0.107822
endloop
endfacet
facet normal -1.000000 0.000013 0.000000
outer loop
vertex -2.500000 1.094703 0.107822
vertex -2.500000 1.094703 -0.107820
vertex -2.500000 1.052634 -0.319314
endloop
endfacet
facet normal -1.000000 0.000007 0.000000
outer loop
vertex -2.500000 1.052634 -0.319314
vertex -2.500000 0.970113 -0.518537
vertex -2.500000 0.850312 -0.697833
endloop
endfacet
facet normal -1.000000 0.000007 0.000000
outer loop
vertex -2.500000 0.850312 -0.697833
vertex -2.500000 0.697833 -0.850312
vertex -2.500000 0.518536 -0.970114
endloop
endfacet
facet normal -1.000000 0.000002 0.000000
outer loop
vertex -2.500000 0.518536 -0.970114
vertex -2.500000 0.319313 -1.052635
vertex -2.500000 0.107819 -1.094704
endloop
endfacet
facet normal -1.000000 0.000000 0.000000
outer loop
vertex -2.500000 0.107819 -1.094704
vertex -2.500000 -0.107819 -1.094704
vertex -2.500000 -0.319313 -1.052635
endloop
endfacet
facet normal -1.000000 0.000000 0.000000
outer loop
vertex -2.500000 -0.319313 -1.052635
vertex -2.500000 -0.518537 -0.970114
vertex -2.500000 -0.697833 -0.850312
endloop
endfacet
facet normal -1.000000 -0.000013 -0.000007
outer loop
vertex -2.500000 -0.697833 -0.850312
vertex -2.500000 -0.850312 -0.697833
vertex -2.500000 -0.970114 -0.518537
endloop
endfacet
facet normal -1.000000 0.000013 0.000000
outer loop
vertex -2.500000 -0.970114 -0.518537
vertex -2.500000 -1.052635 -0.319313
vertex -2.500000 -1.094703 -0.107819
endloop
endfacet
facet normal -1.000000 0.000013 0.000000
outer loop
vertex -2.500000 -1.094703 -0.107819
vertex -2.500000 -1.094703 0.107819
vertex -2.500000 -1.052634 0.319313
endloop
endfacet
facet normal -1.000000 0.000007 0.000003
outer loop
vertex -2.500000 -1.052634 0.319313
vertex -2.500000 -0.970113 0.518537
vertex -2.500000 -0.850311 0.697833
endloop
endfacet
facet normal -1.000000 0.000000 0.000000
outer loop
vertex -2.500000 -0.850311 0.697833
vertex -2.500000 -0.697832 0.850311
vertex -2.500000 -0.518536 0.970113
endloop
endfacet
facet normal -1.000000 0.000000 0.000000
outer loop
vertex -2.500000 -0.518536 0.970113
vertex -2.500000 -0.319313 1.052634
vertex -2.500000 -0.107819 1.094702
endloop
endfacet
facet normal -1.000000 0.000000 0.000000
outer loop
vertex -2.500000 -0.107819 1.094702
vertex -2.500000 0.107818 1.094703
vertex -2.500000 0.319312 1.052634
endloop
endfacet
facet normal -1.000000 0.000000 0.000000
outer loop
vertex -2.500000 0.319312 1.052634
vertex -2.500000 0.518535 0.970113
vertex -2.500000 0.697831 0.850312
endloop
endfacet
facet normal -1.000000 0.000000 0.000000
outer loop
vertex -2.500000 0.697831 0.850312
vertex -2.500000 0.850310 0.697834
vertex -2.500000 0.970112 0.518538
endloop
endfacet
facet normal -1.000000 0.000013 -0.000001
outer loop
vertex -2.500000 0.970112 0.518538
vertex -2.500000 1.052633 0.319316
vertex -2.500000 1.094703 0.107822
endloop
endfacet
facet normal -1.000000 -0.000002 0.000000
outer loop
vertex -2.500000 1.094703 0.107822
vertex -2.500000 1.052634 -0.319314
vertex -2.500000 0.850312 -0.697833
endloop
endfacet
facet normal -1.000000 -0.000001 0.000000
outer loop
vertex -2.500000 0.850312 -0.697833
vertex -2.500000 0.518536 -0.970114
vertex -2.500000 0.107819 -1.094704
endloop
endfacet
facet normal -1.000000 0.000000 0.000000
outer loop
vertex -2.500000 0.107819 -1.094704
vertex -2.500000 -0.319313 -1.052635
vertex -2.500000 -0.697833 -0.850312
endloop
endfacet
facet normal -1.000000 -0.000003 0.000000
outer loop
vertex -2.500000 -0.697833 -0.850312
vertex -2.500000 -0.970114 -0.518537
vertex -2.500000 -1.094703 -0.107819
endloop
endfacet
facet normal -1.000000 -0.000002 -0.000000
outer loop
vertex -2.500000 -1.094703 -0.107819
vertex -2.500000 -1.052634 0.319313
vertex -2.500000 -0.850311 0.697833
endloop
endfacet
facet normal -1.000000 0.000000 0.000000
outer loop
vertex -2.500000 -0.850311 0.697833
vertex -2.500000 -0.518536 0.970113
vertex -2.500000 -0.107819 1.094702
endloop
endfacet
facet normal -1.000000 0.000000 0.000000
outer loop
vertex -2.500000 -0.107819 1.094702
vertex -2.500000 0.319312 1.052634
vertex -2.500000 0.697831 0.850312
endloop
endfacet
facet normal -1.000000 0.000000 0.000001
outer loop
vertex -2.500000 0.697831 0.850312
vertex -2.500000 0.970112 0.518538
vertex -2.500000 1.094703 0.107822
endloop
endfacet
facet normal -1.000000 0.000000 0.000000
outer loop
vertex -2.500000 1.094703 0.107822
vertex -2.500000 0.850312 -0.697833
vertex -2.500000 0.107819 -1.094704
endloop
endfacet
facet normal -1.000000 0.000000 0.000000
outer loop
vertex -2.500000 0.107819 -1.094704
vertex -2.500000 -0.697833 -0.850312
vertex -2.500000 -1.094703 -0.107819
endloop
endfacet
facet normal -1.000000 0.000000 0.000000
outer loop
vertex -2.500000 -1.094703 -0.107819
vertex -2.500000 -0.850311 0.697833
vertex -2.500000 -0.107819 1.094702
endloop
endfacet
facet normal -1.000000 -0.000001 0.000000
outer loop
vertex -2.500000 -0.107819 1.094702
vertex -2.500000 0.697831 0.850312
vertex -2.500000 1.094703 0.107822
endloop
endfacet
facet normal -1.000000 0.000000 0.000000
outer loop
vertex -2.500000 1.094703 0.107822
vertex -2.500000 0.107819 -1.094704
vertex -2.500000 -1.094703 -0.107819
endloop
endfacet
facet normal -1.000000 0.000000 0.000000
outer loop
vertex -2.500000 -1.094703 -0.107819
vertex -2.500000 -0.107819 1.094702
vertex -2.500000 1.094703 0.107822
endloop
endfacet
endsolid Exported from Blender-2.79 (sub 0)
