<?xml version="1.0" encoding="UTF-8" standalone="no"?>
<!-- Created with Inkscape (http://www.inkscape.org/) -->

<svg
   xmlns:dc="http://purl.org/dc/elements/1.1/"
   xmlns:cc="http://creativecommons.org/ns#"
   xmlns:rdf="http://www.w3.org/1999/02/22-rdf-syntax-ns#"
   xmlns:svg="http://www.w3.org/2000/svg"
   xmlns="http://www.w3.org/2000/svg"
   xmlns:sodipodi="http://sodipodi.sourceforge.net/DTD/sodipodi-0.dtd"
   xmlns:inkscape="http://www.inkscape.org/namespaces/inkscape"
   width="8cm"
   height="8cm"
   viewBox="0 0 80 79.999998"
   version="1.1"
   id="svg1295"
   sodipodi:docname="f16_s_04.svg"
   inkscape:version="0.92.3 (2405546, 2018-03-11)"
   inkscape:export-filename="/home/cel/dev/sim/cfd/f16/openfoam/models/png/f16_s_04.svg.png"
   inkscape:export-xdpi="300"
   inkscape:export-ydpi="300">
  <defs
     id="defs1289" />
  <sodipodi:namedview
     id="base"
     pagecolor="#ffffff"
     bordercolor="#666666"
     borderopacity="1.0"
     inkscape:pageopacity="0.0"
     inkscape:pageshadow="2"
     inkscape:zoom="3.959798"
     inkscape:cx="62.488686"
     inkscape:cy="198.05416"
     inkscape:document-units="mm"
     inkscape:current-layer="layer1"
     showgrid="false"
     units="cm"
     inkscape:window-width="1920"
     inkscape:window-height="1008"
     inkscape:window-x="0"
     inkscape:window-y="0"
     inkscape:window-maximized="1" />
  <metadata
     id="metadata1292">
    <rdf:RDF>
      <cc:Work
         rdf:about="">
        <dc:format>image/svg+xml</dc:format>
        <dc:type
           rdf:resource="http://purl.org/dc/dcmitype/StillImage" />
        <dc:title />
      </cc:Work>
    </rdf:RDF>
  </metadata>
  <g
     inkscape:label="Layer 1"
     inkscape:groupmode="layer"
     id="layer1"
     transform="translate(0,-217.00002)">
    <path
       style="fill:none;stroke:#000000;stroke-width:0.26000002;stroke-linecap:butt;stroke-linejoin:miter;stroke-miterlimit:4;stroke-dasharray:none;stroke-opacity:1"
       d="m 39.811009,266.20853 0.997744,-0.0163 1.730016,-0.31009 1.811619,-0.50596 1.419917,-0.73443 0.799727,-0.75076 0.603871,-1.06086 0.212172,-0.96294 -0.01632,-0.63651 -0.35906,-0.9303 -0.979253,-0.81604 -1.632093,-0.50595 -2.056433,-0.21217 -1.991149,-0.13057 v -0.40802 l 1.213419,-0.0491 1.754174,-0.19619 1.742633,-0.43854 1.419497,-0.47316 0.957871,-0.3693 1.28101,-0.26544 1.684932,-0.38084 -0.957873,-0.54241 -0.980952,-0.72705 -0.91171,-0.90018 -1.038657,-1.68492 -0.715516,-1.30409 -0.750142,-1.03866 -0.78476,-0.90017 -0.854008,-0.78476 -0.95787,-0.62319 -1.107901,-0.48471 -1.038655,-0.16157 -0.496251,-0.0462"
       id="path13412"
       inkscape:connector-curvature="0" />
    <path
       style="fill:none;stroke:#000000;stroke-width:0.26000002;stroke-linecap:butt;stroke-linejoin:miter;stroke-miterlimit:4;stroke-dasharray:none;stroke-opacity:1"
       d="m 42.234048,247.45351 -0.576537,-1.10409 -0.507789,-0.62319 -0.634731,-0.3693 -0.703982,-0.0923"
       id="path13414"
       inkscape:connector-curvature="0" />
    <path
       style="fill:none;stroke:#000000;stroke-width:0.26000002;stroke-linecap:butt;stroke-linejoin:miter;stroke-miterlimit:4;stroke-dasharray:none;stroke-opacity:1"
       d="m 39.811007,266.20847 -0.997744,-0.0163 -1.730016,-0.31009 -1.811619,-0.50596 -1.419917,-0.73443 -0.799727,-0.75076 -0.603871,-1.06086 -0.212172,-0.96294 0.01632,-0.63651 0.35906,-0.9303 0.979253,-0.81604 1.632093,-0.50595 2.056433,-0.21217 1.991149,-0.13057 v -0.40802 l -1.213419,-0.0491 -1.754174,-0.19619 -1.742633,-0.43854 -1.419497,-0.47316 -0.957871,-0.3693 -1.28101,-0.26544 -1.684932,-0.38084 0.957873,-0.54241 0.980952,-0.72705 0.91171,-0.90018 1.038657,-1.68492 0.715516,-1.30409 0.750142,-1.03866 0.78476,-0.90017 0.854008,-0.78476 0.95787,-0.62319 1.107901,-0.48471 1.038655,-0.16157 0.496251,-0.0462"
       id="path13412-5"
       inkscape:connector-curvature="0" />
    <path
       style="fill:none;stroke:#000000;stroke-width:0.26000002;stroke-linecap:butt;stroke-linejoin:miter;stroke-miterlimit:4;stroke-dasharray:none;stroke-opacity:1"
       d="m 37.387968,247.45345 0.576537,-1.10409 0.507789,-0.62319 0.634731,-0.3693 0.703982,-0.0923"
       id="path13414-3"
       inkscape:connector-curvature="0" />
  </g>
</svg>
