<?xml version="1.0" encoding="UTF-8" standalone="no"?>
<!-- Created with Inkscape (http://www.inkscape.org/) -->

<svg
   xmlns:dc="http://purl.org/dc/elements/1.1/"
   xmlns:cc="http://creativecommons.org/ns#"
   xmlns:rdf="http://www.w3.org/1999/02/22-rdf-syntax-ns#"
   xmlns:svg="http://www.w3.org/2000/svg"
   xmlns="http://www.w3.org/2000/svg"
   xmlns:sodipodi="http://sodipodi.sourceforge.net/DTD/sodipodi-0.dtd"
   xmlns:inkscape="http://www.inkscape.org/namespaces/inkscape"
   width="8cm"
   height="8cm"
   viewBox="0 0 80 79.999998"
   version="1.1"
   id="svg1295"
   sodipodi:docname="f16_s_03.svg"
   inkscape:version="0.92.3 (2405546, 2018-03-11)"
   inkscape:export-filename="/home/cel/dev/sim/cfd/f16/openfoam/models/png/f16_s_03.svg.png"
   inkscape:export-xdpi="300"
   inkscape:export-ydpi="300">
  <defs
     id="defs1289" />
  <sodipodi:namedview
     id="base"
     pagecolor="#ffffff"
     bordercolor="#666666"
     borderopacity="1.0"
     inkscape:pageopacity="0.0"
     inkscape:pageshadow="2"
     inkscape:zoom="3.959798"
     inkscape:cx="45.865626"
     inkscape:cy="148.52231"
     inkscape:document-units="mm"
     inkscape:current-layer="layer1"
     showgrid="false"
     units="cm"
     inkscape:window-width="1920"
     inkscape:window-height="1008"
     inkscape:window-x="0"
     inkscape:window-y="0"
     inkscape:window-maximized="1" />
  <metadata
     id="metadata1292">
    <rdf:RDF>
      <cc:Work
         rdf:about="">
        <dc:format>image/svg+xml</dc:format>
        <dc:type
           rdf:resource="http://purl.org/dc/dcmitype/StillImage" />
        <dc:title />
      </cc:Work>
    </rdf:RDF>
  </metadata>
  <g
     inkscape:label="Layer 1"
     inkscape:groupmode="layer"
     id="layer1"
     transform="translate(0,-217.00002)">
    <path
       style="fill:none;stroke:#000000;stroke-width:0.26000002;stroke-linecap:butt;stroke-linejoin:miter;stroke-miterlimit:4;stroke-dasharray:none;stroke-opacity:1"
       d="m 39.811011,259.28847 1.149945,0.0163 1.550485,-0.29378 1.452563,-0.4733 1.387274,-0.76708 0.816047,-0.73444 0.554909,-0.53859 0.783404,-0.44251 -0.505947,-0.52042 -0.391703,-0.5386 -0.571231,-1.51784 -0.636514,-1.45256 -0.822956,-1.2908 -0.957872,-1.09636 -0.865545,-0.6809 -1.027114,-0.51932 -1.050197,-0.30006 -0.865548,-0.0692"
       id="path13371"
       inkscape:connector-curvature="0" />
    <path
       style="fill:none;stroke:#000000;stroke-width:0.26000002;stroke-linecap:butt;stroke-linejoin:miter;stroke-miterlimit:4;stroke-dasharray:none;stroke-opacity:1"
       d="m 43.619415,249.6385 0.115406,-0.46163 0.09233,-0.75014 -0.08079,-0.87708 -0.35776,-1.1079 -0.634734,-0.93479 -0.92325,-0.7963 -1.073277,-0.49625 -0.946332,-0.13849"
       id="path13373"
       inkscape:connector-curvature="0" />
    <path
       style="fill:none;stroke:#000000;stroke-width:0.26000002;stroke-linecap:butt;stroke-linejoin:miter;stroke-miterlimit:4;stroke-dasharray:none;stroke-opacity:1"
       d="m 39.811011,259.2885 -1.149945,0.0163 -1.550485,-0.29378 -1.452563,-0.4733 -1.387274,-0.76708 -0.816047,-0.73444 -0.554909,-0.53859 -0.783404,-0.44251 0.505947,-0.52042 0.391703,-0.5386 0.571231,-1.51784 0.636514,-1.45256 0.822956,-1.2908 0.957872,-1.09636 0.865545,-0.6809 1.027114,-0.51932 1.050197,-0.30006 0.865548,-0.0692"
       id="path13371-5"
       inkscape:connector-curvature="0" />
    <path
       style="fill:none;stroke:#000000;stroke-width:0.26000002;stroke-linecap:butt;stroke-linejoin:miter;stroke-miterlimit:4;stroke-dasharray:none;stroke-opacity:1"
       d="m 36.002607,249.63853 -0.115406,-0.46163 -0.09233,-0.75014 0.08079,-0.87708 0.35776,-1.1079 0.634734,-0.93479 0.92325,-0.7963 1.073277,-0.49625 0.946332,-0.13849"
       id="path13373-3"
       inkscape:connector-curvature="0" />
  </g>
</svg>
