<?xml version="1.0" encoding="UTF-8" standalone="no"?>
<!-- Created with Inkscape (http://www.inkscape.org/) -->

<svg
   xmlns:dc="http://purl.org/dc/elements/1.1/"
   xmlns:cc="http://creativecommons.org/ns#"
   xmlns:rdf="http://www.w3.org/1999/02/22-rdf-syntax-ns#"
   xmlns:svg="http://www.w3.org/2000/svg"
   xmlns="http://www.w3.org/2000/svg"
   xmlns:sodipodi="http://sodipodi.sourceforge.net/DTD/sodipodi-0.dtd"
   xmlns:inkscape="http://www.inkscape.org/namespaces/inkscape"
   width="8cm"
   height="8cm"
   viewBox="0 0 80 79.999998"
   version="1.1"
   id="svg1295"
   sodipodi:docname="f16_s_05.svg"
   inkscape:version="0.92.3 (2405546, 2018-03-11)"
   inkscape:export-filename="/home/cel/dev/sim/cfd/f16/openfoam/models/png/f16_s_05.svg.png"
   inkscape:export-xdpi="300"
   inkscape:export-ydpi="300">
  <defs
     id="defs1289" />
  <sodipodi:namedview
     id="base"
     pagecolor="#ffffff"
     bordercolor="#666666"
     borderopacity="1.0"
     inkscape:pageopacity="0.0"
     inkscape:pageshadow="2"
     inkscape:zoom="2.8"
     inkscape:cx="75.358843"
     inkscape:cy="100.87857"
     inkscape:document-units="mm"
     inkscape:current-layer="layer1"
     showgrid="false"
     units="cm"
     inkscape:window-width="1920"
     inkscape:window-height="1008"
     inkscape:window-x="0"
     inkscape:window-y="0"
     inkscape:window-maximized="1" />
  <metadata
     id="metadata1292">
    <rdf:RDF>
      <cc:Work
         rdf:about="">
        <dc:format>image/svg+xml</dc:format>
        <dc:type
           rdf:resource="http://purl.org/dc/dcmitype/StillImage" />
        <dc:title />
      </cc:Work>
    </rdf:RDF>
  </metadata>
  <g
     inkscape:label="Layer 1"
     inkscape:groupmode="layer"
     id="layer1"
     transform="translate(0,-217.00002)">
    <path
       style="fill:none;stroke:#000000;stroke-width:0.26000002;stroke-linecap:butt;stroke-linejoin:miter;stroke-miterlimit:4;stroke-dasharray:none;stroke-opacity:1"
       d="m 39.811011,266.04022 1.119615,0.0457 1.50805,-0.22849 1.873641,-0.45698 1.50805,-0.82258 1.073909,-1.09676 0.594083,-1.00537 0.342738,-1.25671 -0.02286,-0.89112 -0.182795,-0.91397 -0.13709,-0.36559 0.114246,-1.8051 1.759395,-0.34273 2.961024,-0.48019 1.147139,-0.36523 -1.744944,-0.60419 -1.454117,-0.54933 -1.195611,-0.58165 -1.858037,-1.17946 -1.405646,-1.45411 -1.082517,-1.27639 -0.807841,-0.9371 -1.001725,-0.77553 -1.147139,-0.54933 -1.130979,-0.27467 -0.830606,-0.0323"
       id="path13557-3"
       inkscape:connector-curvature="0" />
    <path
       style="fill:none;stroke:#000000;stroke-width:0.26000002;stroke-linecap:butt;stroke-linejoin:miter;stroke-miterlimit:4;stroke-dasharray:none;stroke-opacity:1"
       d="m 39.810969,266.04022 -1.119615,0.0457 -1.50805,-0.22849 -1.873641,-0.45698 -1.50805,-0.82258 -1.073909,-1.09676 -0.594083,-1.00537 -0.342738,-1.25671 0.02286,-0.89112 0.182795,-0.91397 0.13709,-0.36559 -0.114246,-1.8051 -1.759395,-0.34273 -2.961024,-0.48019 -1.147139,-0.36523 1.744944,-0.60419 1.454117,-0.54933 1.195611,-0.58165 1.858037,-1.17946 1.405646,-1.45411 1.082517,-1.27639 0.807841,-0.9371 1.001725,-0.77553 1.147139,-0.54933 1.130979,-0.27467 0.830606,-0.0323"
       id="path13557-3-5"
       inkscape:connector-curvature="0" />
  </g>
</svg>
