<?xml version="1.0" encoding="UTF-8" standalone="no"?>
<!-- Created with Inkscape (http://www.inkscape.org/) -->

<svg
   xmlns:dc="http://purl.org/dc/elements/1.1/"
   xmlns:cc="http://creativecommons.org/ns#"
   xmlns:rdf="http://www.w3.org/1999/02/22-rdf-syntax-ns#"
   xmlns:svg="http://www.w3.org/2000/svg"
   xmlns="http://www.w3.org/2000/svg"
   xmlns:sodipodi="http://sodipodi.sourceforge.net/DTD/sodipodi-0.dtd"
   xmlns:inkscape="http://www.inkscape.org/namespaces/inkscape"
   width="8cm"
   height="8cm"
   viewBox="0 0 80 79.999998"
   version="1.1"
   id="svg1295"
   sodipodi:docname="f16_s_07.svg"
   inkscape:version="0.92.3 (2405546, 2018-03-11)"
   inkscape:export-filename="/home/cel/dev/sim/cfd/f16/openfoam/models/png/f16_s_07.svg.png"
   inkscape:export-xdpi="300"
   inkscape:export-ydpi="300">
  <defs
     id="defs1289" />
  <sodipodi:namedview
     id="base"
     pagecolor="#ffffff"
     bordercolor="#666666"
     borderopacity="1.0"
     inkscape:pageopacity="0.0"
     inkscape:pageshadow="2"
     inkscape:zoom="0.98994949"
     inkscape:cx="-324.09285"
     inkscape:cy="220.26331"
     inkscape:document-units="mm"
     inkscape:current-layer="layer1"
     showgrid="false"
     units="cm"
     inkscape:window-width="1920"
     inkscape:window-height="1008"
     inkscape:window-x="0"
     inkscape:window-y="0"
     inkscape:window-maximized="1" />
  <metadata
     id="metadata1292">
    <rdf:RDF>
      <cc:Work
         rdf:about="">
        <dc:format>image/svg+xml</dc:format>
        <dc:type
           rdf:resource="http://purl.org/dc/dcmitype/StillImage" />
        <dc:title />
      </cc:Work>
    </rdf:RDF>
  </metadata>
  <g
     inkscape:label="Layer 1"
     inkscape:groupmode="layer"
     id="layer1"
     transform="translate(0,-217.00002)">
    <path
       style="fill:none;fill-rule:evenodd;stroke:#000000;stroke-width:0.28222221px;stroke-linecap:butt;stroke-linejoin:miter;stroke-opacity:1"
       d="m 39.81101,265.32221 h 0.6361 l 1.12254,-0.19956 1.01027,-0.3617 0.9604,-0.44901 0.69845,-0.51138 0.78579,-1.11006 0.41159,-0.92297 0.57373,-1.65885 0.52386,-1.87089 6.03674,-1.83347 v -1.34704 l -3.52976,-1.30962 -1.69627,-0.62363 -1.29715,-0.69846 -1.2722,-0.97286 -1.24725,-1.02276 -1.03522,-0.78577 -1.12254,-0.57374 -0.5862,-0.2245 -0.61118,-0.0748 -0.3617,-0.0125"
       id="path4573"
       inkscape:connector-curvature="0" />
    <path
       inkscape:connector-curvature="0"
       id="path842"
       d="m 39.81101,265.32221 h -0.6361 l -1.12254,-0.19956 -1.01027,-0.3617 -0.9604,-0.44901 -0.69845,-0.51138 -0.78579,-1.11006 -0.41159,-0.92297 -0.57373,-1.65885 -0.52386,-1.87089 -6.03674,-1.83347 v -1.34704 l 3.52976,-1.30962 1.69627,-0.62363 1.29715,-0.69846 1.2722,-0.97286 1.24725,-1.02276 1.03522,-0.78577 1.12254,-0.57374 0.5862,-0.2245 0.61118,-0.0748 0.3617,-0.0125"
       style="fill:none;fill-rule:evenodd;stroke:#000000;stroke-width:0.28222221px;stroke-linecap:butt;stroke-linejoin:miter;stroke-opacity:1" />
  </g>
</svg>
